# xmcd
# 
# Track frame offsets:
#     150
#     11400
#     43200
#     71400
#     95625
#     109125
#     129375
#     163350
#     187772
#     222007
#     234640
# 
# Disc length: 3221
# 
# Revision: 4
# Processed by: cddbd v1.5.2PL0 Copyright (c) Steve Scherf et al.
# Submitted via: fre:ac v1.0.17
# 
DISCID=940c930b
DTITLE=Presser Gábor - Angyalok és Emberek
DYEAR=2000
DGENRE=Rock
TTITLE0=A celofán-nap és a papír-hold
TTITLE1=Majd elfújja a szél
TTITLE2=Megemeltek az angyalok
TTITLE3=Én szeretem a túlerõt
TTITLE4=Engem is vigyél el!
TTITLE5=Milyen jó lenne
TTITLE6=Don Quijote Budapesten
TTITLE7=Jó veled
TTITLE8=Kék likõr
TTITLE9=Medvetánc
TTITLE10=Bonus track
EXTD=
EXTT0=A bolond és a hold c. sorozatból
EXTT1=Optimista történet
EXTT2=kis reggeli történet
EXTT3=Képzelt betétdal egy akciófilmhez...
EXTT4=utcazene
EXTT5=képeslap
EXTT6=keserü románc
EXTT7=hüségdal
EXTT8=1975
EXTT9=medvetánc
EXTT10=
PLAYORDER=
